# xmcd CD database file
#
# Track frame offsets:
#	150
#	16710
#	29982
#	44545
#	65665
#	80000
#	95535
#	108765
#	123130
#	139377
#	156485
#
# Disc length: 2231 seconds
#
# Revision: 4
# Processed by: cddbd v1.5.2PL0 Copyright (c) Steve Scherf et al.
# Submitted via: CDex 1.72
#
DISCID=9808b50b
DTITLE=Strehli, Angela (USA-93-Blonde and Blue-bls) - Blonde and Blue
DYEAR=1993
DGENRE=Blues
TTITLE0=Two Bit Texas Town
TTITLE1=Never Lke This Before
TTITLE2=Can't Stop These Teardrops
TTITLE3=You Don't Love Me
TTITLE4=I'm Just Your Fool
TTITLE5=Say It's Not So
TTITLE6=Um, Um, Um, Um, Um, Um (with Don Covay)
TTITLE7=Go On
TTITLE8=Gotta Find Me A Lover (24 hours To Go)
TTITLE9=The Sun Is Shining
TTITLE10=Going To That City
EXTD=YEAR: 1993
EXTT0=
EXTT1=
EXTT2=
EXTT3=
EXTT4=
EXTT5=
EXTT6=
EXTT7=
EXTT8=
EXTT9=
EXTT10=
PLAYORDER=
